<?xml version="1.0" standalone="no"?>
<!DOCTYPE svg PUBLIC "-//W3C//DTD SVG 20010904//EN"
 "http://www.w3.org/TR/2001/REC-SVG-20010904/DTD/svg10.dtd">
<svg version="1.0" xmlns="http://www.w3.org/2000/svg"
 width="1080.000000pt" height="1080.000000pt" viewBox="0 0 1080.000000 1080.000000"
 preserveAspectRatio="xMidYMid meet">
<metadata>
Created by potrace 1.16, written by Peter Selinger 2001-2019
</metadata>
<g transform="translate(0.000000,1080.000000) scale(0.100000,-0.100000)"
fill="#000000" stroke="none">
<path d="M4983 9124 c-4 -10 -8 -95 -8 -189 0 -250 40 -417 151 -642 l56 -113
211 0 c475 0 864 -51 1190 -157 60 -19 111 -33 113 -30 7 7 -205 123 -356 196
-190 91 -311 135 -500 182 -248 63 -360 127 -521 297 -102 107 -181 216 -265
365 -52 91 -65 107 -71 91z"/>
<path d="M3789 8925 c-19 -119 -19 -437 0 -530 70 -356 272 -635 626 -868 114
-75 364 -197 665 -325 129 -55 366 -155 525 -223 770 -327 997 -490 1087 -779
21 -67 23 -92 21 -235 -1 -88 -3 -175 -5 -194 -3 -33 -2 -34 52 -48 166 -42
316 -173 441 -385 28 -49 54 -88 58 -88 13 0 60 88 77 145 14 45 18 91 18 185
-2 144 -27 261 -90 406 -34 79 -36 91 -31 153 3 36 26 151 51 256 59 246 77
367 77 534 1 469 -219 765 -675 910 -254 81 -469 114 -1151 176 -812 74 -942
98 -1190 220 -201 99 -349 243 -440 428 -45 91 -84 221 -86 281 0 17 -4 40 -8
51 -6 14 -12 -6 -22 -70z"/>
<path d="M4188 7198 c-139 -253 -223 -527 -275 -898 -25 -178 -24 -590 1 -750
72 -459 230 -781 550 -1116 136 -144 281 -271 541 -478 584 -464 637 -521 904
-964 183 -303 316 -605 381 -860 34 -133 70 -358 70 -434 0 -46 1 -48 29 -48
23 0 49 21 139 112 394 399 663 893 781 1435 73 335 96 603 87 1027 -6 332
-22 499 -51 556 -91 175 -294 358 -489 439 -178 74 -304 96 -756 131 -537 42
-760 87 -975 199 -69 35 -110 65 -176 131 -109 108 -154 195 -204 391 -81 325
-93 620 -30 780 4 11 -58 75 -226 232 -128 120 -235 217 -238 217 -3 0 -32
-46 -63 -102z"/>
<path d="M5155 6749 c83 -123 175 -298 175 -333 0 -13 3 -25 6 -28 3 -4 35 14
70 39 58 40 147 83 174 83 5 0 -4 -21 -20 -47 -74 -116 -66 -247 20 -330 l34
-33 273 0 c212 0 273 3 273 13 -1 22 -38 94 -81 158 -119 176 -350 348 -630
468 -109 47 -327 121 -355 121 -8 0 20 -50 61 -111z"/>
</g>
</svg>
